<svg xmlns="http://www.w3.org/2000/svg" version="1.1" xmlns:xlink="http://www.w3.org/1999/xlink" xmlns:svgjs="http://svgjs.dev/svgjs" viewBox="0 0 800 800"><defs><linearGradient x1="50%" y1="0%" x2="50%" y2="100%" id="ssspill-grad"><stop stop-color="#b9935a" stop-opacity="1" offset="45%"></stop><stop stop-color="#e3cdac" stop-opacity="1" offset="100%"></stop></linearGradient><filter id="ssspot-filter" x="-20%" y="-20%" width="140%" height="140%" filterUnits="objectBoundingBox" primitiveUnits="userSpaceOnUse" color-interpolation-filters="sRGB">
	<feTurbulence type="turbulence" baseFrequency="0.022 0.218" numOctaves="2" seed="16" stitchTiles="stitch" x="0%" y="0%" width="100%" height="100%" result="turbulence"></feTurbulence>
	<feGaussianBlur stdDeviation="0 3" x="0%" y="0%" width="100%" height="100%" in="turbulence" edgeMode="duplicate" result="blur"></feGaussianBlur>
	<feDisplacementMap in="SourceGraphic" in2="blur" scale="32" xChannelSelector="R" yChannelSelector="B" x="0%" y="0%" width="100%" height="100%" result="displacementMap"></feDisplacementMap>
</filter></defs><rect width="100%" height="100%" fill="#228B2295"></rect><g fill="url(#ssspill-grad)" filter="url(#ssspot-filter)"><circle r="6.715848937406278" cx="724.0891686148815" cy="547.3357493873439" opacity="0.3902033042823375"></circle><circle r="7.370221593601331" cx="625.8910841036445" cy="595.7368655009495" opacity="0.8108071842315127"></circle><circle r="9.218260021650096" cx="564.3233667855342" cy="294.0455240896444" opacity="0.5072130086510913"></circle><circle r="6.741381550401252" cx="17.26538228265398" cy="644.4800072089303" opacity="0.610316754048481"></circle><circle r="5.413235058772874" cx="543.394016674691" cy="589.3863281076572" opacity="0.47173768612587785"></circle><circle r="11.538495462337849" cx="393.59346552913024" cy="741.3137682026714" opacity="0.5539762738683771"></circle><circle r="8.144682826010518" cx="108.9611746883679" cy="774.7767805220591" opacity="0.7312029653598652"></circle><circle r="8.327895207576407" cx="523.9021653827539" cy="92.4213015218272" opacity="0.9431419809239866"></circle><circle r="7.961639624046561" cx="686.5142937866565" cy="780.332382360918" opacity="0.8770074691109326"></circle><circle r="6.407265171255121" cx="756.4199452932496" cy="541.9403829239558" opacity="0.6453299795051399"></circle><circle r="5.037591016716629" cx="389.26833629201593" cy="166.91306169640978" opacity="0.3665168250649633"></circle><circle r="7.117889475429382" cx="14.505097640624895" cy="608.9745264865697" opacity="0.8496602811596513"></circle><circle r="6.021992866038197" cx="785.8769228790973" cy="526.4531523166737" opacity="0.9217744104360596"></circle><circle r="9.396647141733755" cx="584.4694748586288" cy="525.5558203540187" opacity="0.28535751707031837"></circle><circle r="4.5897696164813215" cx="324.3696907855905" cy="783.9706726226567" opacity="0.2869375904173542"></circle><circle r="8.524059429137878" cx="553.531373647841" cy="494.813873837535" opacity="0.7211225735702506"></circle><circle r="7.487577411830608" cx="781.7483168311642" cy="277.9081118024868" opacity="0.5086423833808724"></circle><circle r="3.7318947919476564" cx="9.640834113212092" cy="486.57022803693076" opacity="0.6108695898562667"></circle><circle r="5.974617683136019" cx="577.5911616135095" cy="724.9599735341494" opacity="0.9885060019186352"></circle><circle r="7.2775165726114635" cx="417.44708514623653" cy="250.72912701022776" opacity="0.23988349353418634"></circle><circle r="14.403682105100948" cx="605.0230815199587" cy="140.26721896911343" opacity="0.2563389156264778"></circle><circle r="12.851400665209876" cx="245.15991618698027" cy="428.52707297466344" opacity="0.5391957049111492"></circle><circle r="4.583607997445341" cx="19.59066043404183" cy="518.3411500339558" opacity="0.6198799682769868"></circle><circle r="6.788423001674393" cx="531.3305693411429" cy="459.16660617129605" opacity="0.8002692211455612"></circle><circle r="3.241719804699618" cx="88.06293740432825" cy="458.5277700219444" opacity="0.8285575248842609"></circle><circle r="11.319633049899377" cx="302.70073373700376" cy="124.74635154264539" opacity="0.11483160148505961"></circle><circle r="6.434519984056243" cx="44.53220051414635" cy="745.4348901848887" opacity="0.9456437103417614"></circle><circle r="8.40450645514982" cx="322.13685121150814" cy="286.94043618157747" opacity="0.9672627126456094"></circle><circle r="6.001113483739381" cx="304.53043358947605" cy="173.34073313377473" opacity="0.5107258801766023"></circle><circle r="8.77729169740725" cx="369.6299440727739" cy="688.3527278778203" opacity="0.9363981712823665"></circle><circle r="14.713210929483271" cx="501.65037585403763" cy="276.95626886647364" opacity="0.7542760551092637"></circle><circle r="7.110185014994724" cx="173.59075561666432" cy="701.64546601893" opacity="0.24609635236557234"></circle><circle r="8.449249064449512" cx="570.569346599668" cy="679.8567643908959" opacity="0.6121361807556508"></circle><circle r="12.528781044044322" cx="765.306525353635" cy="763.7809019484174" opacity="0.3415315915305689"></circle><circle r="8.022002271579645" cx="400.9642073659693" cy="427.1890159008901" opacity="0.8787240776636652"></circle><circle r="7.002007030967109" cx="290.11712316639057" cy="764.3560885789642" opacity="0.1825943550948093"></circle><circle r="6.767801178305238" cx="83.56053674211748" cy="92.35678099866026" opacity="0.7465130331749092"></circle><circle r="10.712312808893486" cx="474.11898090771103" cy="342.45786470674227" opacity="0.612070620482762"></circle><circle r="5.38827011552369" cx="679.9596952065722" cy="600.378358554071" opacity="0.2187203911289493"></circle><circle r="6.378091593877501" cx="358.9924993802558" cy="768.3708171120637" opacity="0.4025440152136439"></circle><circle r="9.691461570207311" cx="225.63383268020922" cy="23.053263538315647" opacity="0.9251825598173611"></circle><circle r="12.017427408051505" cx="195.82248658183153" cy="417.66264309513446" opacity="0.3461490336734526"></circle><circle r="7.6554549920493855" cx="470.5370362635999" cy="155.433564606607" opacity="0.944391245282504"></circle><circle r="5.72937521808605" cx="309.3941525316297" cy="539.713766800687" opacity="0.27324078846400746"></circle><circle r="8.406029983825542" cx="779.6701580775996" cy="115.65103120124307" opacity="0.9063338372144449"></circle><circle r="9.52639270030161" cx="472.6039375765096" cy="727.7354739009755" opacity="0.5723858117553798"></circle><circle r="8.130524054484326" cx="339.8412522907985" cy="621.392093157006" opacity="0.9892799357047554"></circle><circle r="5.318402735613263" cx="674.4654093663124" cy="662.6166945380752" opacity="0.3815189247781342"></circle><circle r="6.6123269911292875" cx="674.4566219531268" cy="375.5937373899292" opacity="0.19893795651217921"></circle><circle r="7.843357537548204" cx="648.946978390639" cy="708.9042235752552" opacity="0.29767690169874594"></circle><circle r="11.608443625192006" cx="613.7935809329468" cy="356.21547893352863" opacity="0.8412225116581439"></circle><circle r="8.569118312154597" cx="92.76794665186333" cy="265.57150338378585" opacity="0.8680713111161382"></circle><circle r="7.189168393497978" cx="396.40475434442305" cy="350.58220563074224" opacity="0.5398252312733879"></circle><circle r="6.749473769538485" cx="81.7660773046967" cy="299.6002023264031" opacity="0.2454410894548271"></circle><circle r="8.09794506680831" cx="448.4869053193253" cy="439.64699601484597" opacity="0.5080624004478064"></circle><circle r="4.576067938654571" cx="65.52726122771803" cy="709.7187320034081" opacity="0.6720268593805189"></circle><circle r="9.586313002563141" cx="648.3974181016537" cy="88.31768488024046" opacity="0.6357064641188702"></circle><circle r="5.274387345179411" cx="485.06707610665796" cy="777.1240325897822" opacity="0.6631730218711404"></circle><circle r="10.408531792321043" cx="132.71320803742051" cy="112.58398881475257" opacity="0.8125952875287116"></circle><circle r="9.156902936186592" cx="216.5404198853062" cy="629.2351258768183" opacity="0.45041372583989725"></circle><circle r="11.831757045882995" cx="553.5286599197269" cy="246.93703278963795" opacity="0.8721046666280812"></circle><circle r="4.340280610537609" cx="356.0061663223848" cy="577.6279725392335" opacity="0.8297734796885619"></circle><circle r="4.6805501859885466" cx="591.5300029445688" cy="477.2616901052079" opacity="0.8223513758377515"></circle><circle r="5.996550994571475" cx="763.5601478721351" cy="47.106494221367875" opacity="0.8302433000212196"></circle><circle r="9.863149342416573" cx="354.40071570195283" cy="141.61843451665092" opacity="0.45330751146139614"></circle><circle r="7.421108550003726" cx="568.0706512046717" cy="381.9853946479464" opacity="0.5480435270815722"></circle><circle r="8.841010963825557" cx="92.90344625326442" cy="735.4668684114151" opacity="0.424456224985854"></circle><circle r="11.779899461059259" cx="690.9981329755029" cy="234.32254349370942" opacity="0.6620206155649057"></circle><circle r="6.199469240585314" cx="665.0622826419873" cy="563.2311795357338" opacity="0.23097853749038325"></circle><circle r="7.723938738295463" cx="131.25162624229074" cy="723.394431511182" opacity="0.740666574659604"></circle><circle r="8.584393270854981" cx="448.19382443450854" cy="768.5647092297586" opacity="0.8348315050143961"></circle><circle r="4.508835689784616" cx="570.2332299817504" cy="17.553427344646895" opacity="0.9675604095178614"></circle><circle r="7.484184897332957" cx="492.5133685643206" cy="526.8592352919832" opacity="0.8199473659765406"></circle><circle r="7.924280736900213" cx="28.683370222419025" cy="581.3367544725601" opacity="0.5470275446304457"></circle><circle r="6.1365514840103454" cx="296.9380270768557" cy="572.5698292613321" opacity="0.7125064305831108"></circle><circle r="9.860110841576528" cx="491.2524947563223" cy="577.230617066103" opacity="0.30380139184752253"></circle><circle r="10.410530582999883" cx="778.7753595579704" cy="408.620033482311" opacity="0.4919592517441618"></circle><circle r="5.05773908206927" cx="657.5057441679455" cy="342.8503986918155" opacity="0.71459989560942"></circle><circle r="4.309194623677548" cx="362.98587710448083" cy="216.10858296373738" opacity="0.8771481350445599"></circle><circle r="13.251825413299482" cx="303.79659389362945" cy="347.39387348286357" opacity="0.3362963336811675"></circle><circle r="6.5552890972883375" cx="61.23035452160148" cy="469.0955922569075" opacity="0.3176460682548574"></circle><circle r="7.801044633451927" cx="561.9597538791643" cy="445.2564275990337" opacity="0.8991687543537105"></circle><circle r="8.066431766455388" cx="108.74446987840435" cy="646.2463716421925" opacity="0.7063613033934198"></circle><circle r="9.168763516723057" cx="440.280120458056" cy="600.3573745855691" opacity="0.6715561719604874"></circle><circle r="6.243084279989711" cx="571.8483096240017" cy="60.25141901111882" opacity="0.8464425312061868"></circle><circle r="6.975994330072357" cx="528.7658241068564" cy="770.611032031701" opacity="0.37684266655631415"></circle><circle r="9.563820640735118" cx="491.7755680375957" cy="484.3186474417947" opacity="0.4982948140904446"></circle><circle r="9.03260757817657" cx="372.67641277053974" cy="504.8749535829178" opacity="0.7570226831441093"></circle><circle r="8.54692152551161" cx="443.2199977853672" cy="480.8537978449994" opacity="0.2294958876262044"></circle><circle r="12.541702387557368" cx="689.7488152372565" cy="107.33150385438536" opacity="0.37602570720967887"></circle><circle r="6.329992213011785" cx="622.7786509551356" cy="656.8889424419866" opacity="0.5369521098602636"></circle><circle r="9.28245867935057" cx="233.19637335516975" cy="716.6340105077129" opacity="0.29189502847888654"></circle><circle r="6.154353195575434" cx="188.2625705930986" cy="780.9193608619382" opacity="0.4072317383257854"></circle><circle r="12.760294634441198" cx="696.7834246943805" cy="29.110110693080387" opacity="0.4710297576238549"></circle><circle r="6.067684373860316" cx="66.68359756177242" cy="675.0938234906174" opacity="0.25599880380612866"></circle><circle r="9.541536589685514" cx="776.9712349769085" cy="676.8809892894246" opacity="0.22866879233656479"></circle><circle r="6.233190229609139" cx="31.319622158338905" cy="413.0620564592987" opacity="0.47684457627134325"></circle><circle r="8.882509629164545" cx="777.7100584617168" cy="460.0023365788435" opacity="0.3123993343233117"></circle><circle r="6.484922128088257" cx="663.192349908358" cy="498.4553163084503" opacity="0.3293181664215998"></circle><circle r="7.573358812887847" cx="545.690263889981" cy="553.8860300954807" opacity="0.6503575621550152"></circle><circle r="8.18173196820567" cx="747.080009543714" cy="585.6150211653967" opacity="0.4099999251946932"></circle><circle r="9.853193660744266" cx="138.67916198818662" cy="415.61485271898056" opacity="0.7547681571112491"></circle><circle r="9.615089717597266" cx="413.398215067922" cy="512.0643629431048" opacity="0.4616007537519724"></circle><circle r="5.704929146740686" cx="390.36223862581693" cy="467.0556182573899" opacity="0.7762137415079783"></circle><circle r="5.0525350460192895" cx="163.64264441914509" cy="280.4069020757175" opacity="0.35500183928751305"></circle><circle r="5.733380041010795" cx="249.07851824879486" cy="586.589105966949" opacity="0.2513913476530405"></circle><circle r="7.714965853768014" cx="746.4691197652824" cy="225.31426128934" opacity="0.8948409365431474"></circle><circle r="11.801043625928642" cx="88.84025718369622" cy="390.1230368153944" opacity="0.4263175972634101"></circle><circle r="9.041730585848635" cx="246.4264129361476" cy="339.62820725460017" opacity="0.9552899156565047"></circle><circle r="8.245977936112642" cx="414.0108948525272" cy="650.0746791442439" opacity="0.44871753876842635"></circle><circle r="7.341914740217657" cx="595.3958188783848" cy="442.54473311484395" opacity="0.7167377466489859"></circle><circle r="10.639508332738957" cx="631.6055584989236" cy="206.21390163895867" opacity="0.773021978701396"></circle><circle r="6.892535786329137" cx="494.32524120968054" cy="28.612090102776072" opacity="0.6876162806165698"></circle><circle r="9.12745501780509" cx="73.929466857852" cy="594.6929587555476" opacity="0.2730437864641957"></circle><circle r="12.586433836399667" cx="436.9244291758771" cy="305.70517414624567" opacity="0.9470608454067586"></circle><circle r="7.541886549560638" cx="225.081677583517" cy="539.0290469649933" opacity="0.5312539879223972"></circle><circle r="5.811260442544503" cx="612.5344761945771" cy="65.3470966222731" opacity="0.4195025319128656"></circle><circle r="7.291682505630703" cx="123.25190364151182" cy="610.9214670887791" opacity="0.29897882978292933"></circle><circle r="10.832094942827144" cx="671.2913707119443" cy="165.41402533076794" opacity="0.8992559001380238"></circle><circle r="6.161249052207008" cx="19.457129605800844" cy="549.3301624599918" opacity="0.5623695765550945"></circle><circle r="8.939260210390573" cx="522.1925532447382" cy="340.0903430437855" opacity="0.7556756838690504"></circle><circle r="14.347135585269502" cx="352.8733845791861" cy="85.79613346085351" opacity="0.7013859742181207"></circle><circle r="5.551298920633147" cx="141.49805674171313" cy="781.3886637727807" opacity="0.7538566885378687"></circle><circle r="7.497626152794115" cx="194.17432127818094" cy="498.51699853905507" opacity="0.9345981972865485"></circle><circle r="7.935132940110037" cx="669.228980132683" cy="302.330931891553" opacity="0.9906535066808587"></circle><circle r="14.41714968801699" cx="228.39729311659795" cy="217.72275838345826" opacity="0.38905050096420035"></circle><circle r="10.00555017509017" cx="567.3592058536004" cy="335.3335940387796" opacity="0.3547823754930475"></circle><circle r="9.252976643691994" cx="519.7529101737763" cy="669.62848817344" opacity="0.4240988650762808"></circle><circle r="7.35284100944971" cx="699.94273243951" cy="736.072136358694" opacity="0.7040179262743922"></circle><circle r="8.056992954546558" cx="65.48167909166592" cy="508.107318364486" opacity="0.8238301251907785"></circle><circle r="8.870233624503136" cx="61.87643498845675" cy="171.658963958032" opacity="0.18889894562576814"></circle><circle r="12.03244505193154" cx="521.4396240749065" cy="714.0564930526416" opacity="0.8099155094843963"></circle><circle r="6.541152072858468" cx="369.2489333122161" cy="546.7806380673982" opacity="0.27743100130379894"></circle><circle r="10.176523757782434" cx="657.9684557358362" cy="262.50349767916515" opacity="0.44667239865628305"></circle><circle r="5.55305346561828" cx="399.4002203370223" cy="200.37497227545526" opacity="0.7030693262839766"></circle><circle r="8.89173155882175" cx="617.9277184472338" cy="304.62525564537003" opacity="0.8722629560077197"></circle><circle r="10.304194143233904" cx="588.9679459555239" cy="568.3464826906416" opacity="0.5614038719145876"></circle><circle r="6.8170504385003134" cx="15.195384027918172" cy="760.58129357076" opacity="0.9737059606501136"></circle><circle r="13.544919614194697" cx="373.61518936351047" cy="297.1141964027834" opacity="0.5192509488854503"></circle><circle r="8.425274493195628" cx="168.4301506338131" cy="240.66237431609255" opacity="0.5271324976050097"></circle><circle r="6.156092925986151" cx="616.6334456252479" cy="502.6489787572479" opacity="0.5377586484299298"></circle><circle r="9.655215496472923" cx="97.63666284902628" cy="221.2405422771346" opacity="0.3859404990741002"></circle><circle r="8.049516873025706" cx="481.5201498198955" cy="638.5019217151568" opacity="0.5580471096135079"></circle><circle r="11.075265212792395" cx="735.0267025408538" cy="136.76707401685837" opacity="0.9338485048649585"></circle><circle r="7.089056499599602" cx="380.1977771351809" cy="621.0446031794036" opacity="0.35152581602830935"></circle><circle r="6.646595955484997" cx="324.40079070219815" cy="211.1171820880869" opacity="0.8991153477030099"></circle><circle r="6.552710684703285" cx="717.1362705026729" cy="507.4820116306474" opacity="0.6171099454104856"></circle><circle r="5.04181449424261" cx="327.9844481439472" cy="513.7962265362368" opacity="0.9659033743674881"></circle><circle r="5.285315523903521" cx="23.93148818609504" cy="787.1862032830959" opacity="0.6153959118060143"></circle><circle r="14.263732647642183" cx="243.30926754532948" cy="148.24645090559721" opacity="0.6688196703238921"></circle><circle r="13.100089973834327" cx="30.57067434171534" cy="115.0532506255284" opacity="0.20578627228027868"></circle><circle r="7.840142934660051" cx="311.44066300412914" cy="718.6242647588031" opacity="0.8069129062732475"></circle><circle r="9.038393761417087" cx="179.17881960900945" cy="70.35322139912871" opacity="0.25177943066930236"></circle><circle r="10.636518827786386" cx="460.47068776495524" cy="244.59800071413704" opacity="0.946996185556594"></circle><circle r="5.313088354043684" cx="101.49106919700426" cy="543.690420281448" opacity="0.25302931048382815"></circle><circle r="8.906729617590592" cx="160.0992848094236" cy="544.103008453239" opacity="0.35956481451508915"></circle><circle r="7.088878566178602" cx="348.5735469149987" cy="186.362950301802" opacity="0.9316208000653051"></circle><circle r="10.08361550558794" cx="584.2379168026125" cy="774.2298556641338" opacity="0.4545333778758728"></circle><circle r="7.791379614369376" cx="261.91958067675915" cy="269.8164393373313" opacity="0.294197330165355"></circle><circle r="7.761688963670278" cx="454.2802132120577" cy="531.5842229802554" opacity="0.515248789803319"></circle><circle r="10.645990760503024" cx="155.25739274231262" cy="25.692621174504563" opacity="0.28145048432564346"></circle><circle r="8.588030683620595" cx="590.8732645357344" cy="619.6818255155528" opacity="0.9300620513013388"></circle><circle r="7.6243962002296355" cx="646.7788887011799" cy="468.56132926122916" opacity="0.6122916350082376"></circle><circle r="6.052243656941957" cx="380.9833453301948" cy="242.2788563806518" opacity="0.3729487479399235"></circle><circle r="8.583574924319098" cx="120.84776570208848" cy="574.1364429369422" opacity="0.10918273659041562"></circle><circle r="8.403953367815973" cx="409.13155430668513" cy="136.21657137518363" opacity="0.22169183456905844"></circle><circle r="9.768525634055607" cx="29.618882171106048" cy="311.8380568143951" opacity="0.7580700371205348"></circle><circle r="4.027561647104421" cx="784.5239966799049" cy="576.1894864418122" opacity="0.13675530060016486"></circle><circle r="4.756722439371468" cx="550.9907467630823" cy="621.1501941367194" opacity="0.4748774149351921"></circle><circle r="7.455880426303356" cx="119.55717138166443" cy="63.16457635103805" opacity="0.4891287281067549"></circle><circle r="7.5450566227926705" cx="458.38926714479146" cy="667.257356125031" opacity="0.23752996137122095"></circle><circle r="9.635840684638353" cx="125.7816019934382" cy="679.1224060641636" opacity="0.8728935294239134"></circle><circle r="9.393719396506487" cx="132.46190409143642" cy="308.57031521557985" opacity="0.5478084496707142"></circle><circle r="8.350851152676773" cx="261.51266693581186" cy="669.6422063487141" opacity="0.3856860161109613"></circle><circle r="10.105722362897115" cx="33.063213389155976" cy="36.6667746460517" opacity="0.4868676901047344"></circle><circle r="8.171003174335532" cx="631.33604546839" cy="542.7405094804054" opacity="0.8206087402685637"></circle><circle r="8.513252682148106" cx="196.84365834423127" cy="319.8686448395236" opacity="0.3395480690187459"></circle><circle r="6.815844482281709" cx="497.10951964444894" cy="443.5966456188962" opacity="0.5534373439496185"></circle><circle r="6.766232435671469" cx="610.4095195427864" cy="699.4175154498524" opacity="0.932702192766718"></circle><circle r="5.411778354504277" cx="175.37316616210273" cy="744.8293029141303" opacity="0.15474138012054983"></circle><circle r="9.04448097353708" cx="570.0917992507113" cy="103.80881525446296" opacity="0.5913264937819434"></circle><circle r="10.237765285201682" cx="349.2617778013282" cy="375.31594201656344" opacity="0.8950370240674811"></circle><circle r="9.394851207234383" cx="282.73145634718276" cy="210.49203938755346" opacity="0.1700932690251611"></circle><circle r="6.56653025649458" cx="564.3509129175251" cy="648.6120056514222" opacity="0.9961960763886938"></circle><circle r="3.943890895300567" cx="95.41493827338081" cy="432.121588478734" opacity="0.7879985644509611"></circle><circle r="8.410611206855123" cx="602.9799092465688" cy="404.2631572154657" opacity="0.6784024824061426"></circle><circle r="6.99613986357075" cx="95.45035931979328" cy="341.3501466624883" opacity="0.13039116998244304"></circle><circle r="8.297499054137242" cx="730.1312518830102" cy="365.46070718628187" opacity="0.6516214217713556"></circle><circle r="7.157662870215535" cx="94.85885738442565" cy="22.035291691132837" opacity="0.23027366763225043"></circle><circle r="6.536901653572724" cx="680.2725088467787" cy="440.46726952458425" opacity="0.6607376246769099"></circle><circle r="9.562765531128823" cx="179.37759400385767" cy="589.7489619090966" opacity="0.3431254791241889"></circle><circle r="7.438705189569378" cx="442.61219397427135" cy="193.3620755430185" opacity="0.8032341866918916"></circle><circle r="8.539325194367537" cx="777.2081793145254" cy="18.526117209938306" opacity="0.24002923538162244"></circle><circle r="8.672619404790368" cx="723.5402725366181" cy="630.7455116493093" opacity="0.1981962593276495"></circle><circle r="6.342061429099054" cx="415.45171661553616" cy="561.5384521674456" opacity="0.5386967189800034"></circle><circle r="6.289145766023017" cx="299.3054514068144" cy="618.0708006139403" opacity="0.7273573351082836"></circle><circle r="9.505315763065086" cx="178.2625984645585" cy="134.54898567495871" opacity="0.27258600102551156"></circle><circle r="10.07963219481439" cx="635.1280386134873" cy="760.6363953665821" opacity="0.6226646916467229"></circle><circle r="6.616697659365082" cx="35.06115043325704" cy="488.6745294083499" opacity="0.41559046036688985"></circle><circle r="8.557198075763411" cx="647.0854552750311" cy="25.528947273795982" opacity="0.8599050104572111"></circle><circle r="8.488100672344686" cx="515.5170307965826" cy="623.9226320199317" opacity="0.20717522937241606"></circle><circle r="7.809195081291431" cx="607.0049671651656" cy="18.562526367768157" opacity="0.8575175865397631"></circle><circle r="9.688811545633156" cx="526.1797497680699" cy="151.6372060323155" opacity="0.1193996640305901"></circle><circle r="6.7030169886853095" cx="20.73755348303665" cy="451.11176462409435" opacity="0.31672758522347"></circle><circle r="6.936854996174475" cx="217.48117399936268" cy="85.45732940890451" opacity="0.8882264334947078"></circle><circle r="10.87642098931811" cx="733.0060419398976" cy="73.88853309541689" opacity="0.4731149567542027"></circle><circle r="11.531294187113227" cx="745.1420741890266" cy="305.9795968503991" opacity="0.6794852270570649"></circle><circle r="4.354477758813108" cx="321.84296908781266" cy="582.1177795942913" opacity="0.2250361737441133"></circle><circle r="7.8376140809576595" cx="531.274617885137" cy="403.5159265723099" opacity="0.9041626872720555"></circle><circle r="4.973943789871986" cx="730.908388933626" cy="263.42313916989445" opacity="0.8149496174365678"></circle><circle r="8.242639193649254" cx="377.6386314331879" cy="29.259639207454434" opacity="0.4822440164550882"></circle><circle r="5.276813284495039" cx="701.3506126499833" cy="684.7854939505411" opacity="0.27876045634640834"></circle><circle r="4.954231799542017" cx="659.8357018168655" cy="628.923662986871" opacity="0.7943947375465399"></circle><circle r="8.444337489632673" cx="743.8216532713018" cy="703.690261460404" opacity="0.15241418445045166"></circle><circle r="10.626713430077402" cx="150.72603440984082" cy="470.0786140080324" opacity="0.46236890333977476"></circle><circle r="6.414663757958161" cx="291.70220067757936" cy="454.3884744010341" opacity="0.13907608546821243"></circle><circle r="5.946745238265859" cx="47.632415627319766" cy="626.2999879150614" opacity="0.20172459732429648"></circle><circle r="7.7042857193389676" cx="268.82542690830076" cy="548.2464527232675" opacity="0.2716289416043801"></circle><circle r="6.124648462459145" cx="30.68712349691201" cy="675.291958048685" opacity="0.611716793568968"></circle><circle r="4.932944708777579" cx="784.10128061575" cy="223.87303471038655" opacity="0.18097512560890977"></circle><circle r="9.026349093734394" cx="605.6008088873738" cy="254.09992710477653" opacity="0.23185951578949313"></circle><circle r="7.127973277667316" cx="478.8249837187167" cy="92.88277368107002" opacity="0.8533471169199832"></circle><circle r="8.973437732847106" cx="706.6268174610792" cy="404.9290074084295" opacity="0.5970380795145412"></circle><circle r="8.530115812656236" cx="414.42569234120845" cy="782.7280549953574" opacity="0.28933913071082573"></circle><circle r="10.61504135982939" cx="305.1645419330881" cy="32.71810973503873" opacity="0.7522260541027883"></circle><circle r="7.2983993233345235" cx="481.2123369986777" cy="396.80027127718756" opacity="0.43129546955029996"></circle><circle r="10.142111227307172" cx="777.4843695780015" cy="350.25291557756765" opacity="0.66158911592876"></circle><circle r="5.688318969720892" cx="740.8624224780193" cy="422.6974564876354" opacity="0.28805339663206275"></circle><circle r="6.748444516955734" cx="270.36364898439797" cy="495.76110811752596" opacity="0.9074060531600044"></circle><circle r="11.238214022513572" cx="437.27656556201896" cy="38.97260982326299" opacity="0.7365802671496506"></circle><circle r="5.790820909807479" cx="327.81301080279815" cy="243.59733685037043" opacity="0.7752661222295657"></circle><circle r="12.630121713374656" cx="426.7100435679076" cy="390.89287093027804" opacity="0.28197591327947663"></circle><circle r="9.022656720504" cx="60.2290838742592" cy="546.9921365244942" opacity="0.4647668633068722"></circle><circle r="7.020395648960957" cx="112.93743551460047" cy="501.1904350150615" opacity="0.7924252344473249"></circle><circle r="6.225910348978827" cx="704.512889665566" cy="325.7706396636383" opacity="0.19701305603966274"></circle><circle r="10.430040425621794" cx="720.0965554664258" cy="466.5835745805626" opacity="0.5518325783793099"></circle><circle r="8.519474343666193" cx="649.1049817436207" cy="402.0738123074523" opacity="0.9964858299736467"></circle><circle r="8.528241848354195" cx="163.64450892313332" cy="638.5652359764267" opacity="0.6237321127342618"></circle><circle r="12.109270955982076" cx="242.08129158955182" cy="771.2987003891158" opacity="0.9028057675950377"></circle><circle r="12.171229597961716" cx="430.82684359991345" cy="704.8638135480335" opacity="0.4893580437729722"></circle><circle r="8.308642454159786" cx="774.5411604955767" cy="623.8119764051459" opacity="0.23086353378020819"></circle><circle r="5.91476763435284" cx="18.063891522987863" cy="723.9703580933945" opacity="0.7186304921465936"></circle><circle r="12.765170045652301" cx="264.32463583285835" cy="77.14327083343572" opacity="0.3363971761824699"></circle><circle r="7.605791913474754" cx="764.2782184987138" cy="496.4563832547516" opacity="0.8065883232564935"></circle><circle r="8.909235673675923" cx="358.33086253949176" cy="426.43865017726" opacity="0.270114221290474"></circle><circle r="9.036790479651566" cx="723.3406374831964" cy="188.4004567936115" opacity="0.6000806045430841"></circle><circle r="8.294087312177565" cx="198.05823868708586" cy="671.0338464367333" opacity="0.18391545251589522"></circle><circle r="5.015257054804813" cx="13.460912211846814" cy="693.2644286957994" opacity="0.8744709342836058"></circle><circle r="9.702778701056062" cx="67.5186066588549" cy="778.2913336038968" opacity="0.7877147650518056"></circle><circle r="8.442028260052462" cx="683.8072877958741" cy="528.1679444729183" opacity="0.12124141546411729"></circle><circle r="9.843511497363757" cx="427.0526234272025" cy="100.37699631144338" opacity="0.5174812474369758"></circle><circle r="9.305841024854246" cx="154.3863451893243" cy="364.67891147383335" opacity="0.84226637328649"></circle><circle r="10.100587364925227" cx="27.49791043461259" cy="239.3255090350496" opacity="0.17771790735347354"></circle><circle r="4.6482248865856075" cx="630.6703203573903" cy="437.0762559677746" opacity="0.9489228518575196"></circle><circle r="6.705341392125638" cx="314.4693299273197" cy="667.1007706333031" opacity="0.19213643808526604"></circle><circle r="11.119888886412317" cx="573.6747616519772" cy="191.748647459058" opacity="0.976780130823745"></circle><circle r="11.84478098670333" cx="509.06560862862506" cy="209.6640211802724" opacity="0.9155602249421144"></circle><circle r="11.249111762754673" cx="160.17449798116928" cy="184.21280481225125" opacity="0.6866167606603525"></circle><circle r="9.687506493774809" cx="775.6783622605254" cy="177.72981526167843" opacity="0.19114631715746444"></circle><circle r="6.7863337367998735" cx="76.40889061330921" cy="643.6252826461052" opacity="0.926217382268972"></circle><circle r="5.0309103842540015" cx="259.0303058910036" cy="622.6752842307209" opacity="0.21579788146901266"></circle><circle r="11.736110990980212" cx="36.27656141797417" cy="365.5532448088852" opacity="0.8622643870455368"></circle><circle r="7.317527817891172" cx="537.8534023374413" cy="34.361045480916786" opacity="0.23876800450920618"></circle><circle r="7.348471646306799" cx="707.1096543396902" cy="576.1076136373556" opacity="0.3951717773841762"></circle><circle r="6.009438810116068" cx="335.87081730081167" cy="472.26798920042137" opacity="0.2358007387557901"></circle><circle r="7.931889037058566" cx="304.75104105243764" cy="411.0046458555826" opacity="0.15777985235702105"></circle><circle r="5.427799482335777" cx="530.3889823182521" cy="521.7515320651956" opacity="0.6637618599292905"></circle></g></svg>